<?xml version="1.0" encoding="UTF-8"?>
<!-- Generator: Adobe Illustrator 15.1.0, SVG Export Plug-In . SVG Version: 6.00 Build 0)  -->
<!DOCTYPE svg PUBLIC "-//W3C//DTD SVG 1.1//EN" "http://www.w3.org/Graphics/SVG/1.1/DTD/svg11.dtd">
<svg version="1.1" id="Layer_1_2_" xmlns="http://www.w3.org/2000/svg" xmlns:xlink="http://www.w3.org/1999/xlink" x="0px" y="0px" width="2200px" height="400px" viewBox="0 0 2200 400" enable-background="new 0 0 2200 400" xml:space="preserve">
<g id="Composite_Path" opacity="0.0745">
	<g>
		<path fill="#FFFFFF" d="M120.062,107.673l-42.195,21.353v53.381l42.865,21.352l42.865-21.352v-53.381L120.062,107.673z     M105.042,183.931l-16.459-8.197v-24.152l6.43-3.2v23.349l17.206,8.57L105.042,183.931z M137.826,166.665l-17.296,8.648    l-17.296-8.648v-21.62l17.025-8.647l17.566,8.647L137.826,166.665L137.826,166.665z M152.879,159.725l-6.429,3.253v-23.276    l-17.139-8.406l7.241-3.606l16.328,8.009L152.879,159.725z"/>
	</g>
</g>
<g id="Composite_Path_1_" opacity="0.0745">
	<g>
		<path fill="#FFFFFF" d="M120.062,287.673l-42.195,21.353v53.382l42.865,21.352l42.865-21.352v-53.382L120.062,287.673z     M105.042,363.932l-16.459-8.197v-24.152l6.43-3.2v23.349l17.206,8.57L105.042,363.932z M137.826,346.665l-17.296,8.647    l-17.296-8.647v-21.62l17.025-8.646l17.566,8.646L137.826,346.665L137.826,346.665z M152.879,339.725l-6.429,3.254v-23.276    l-17.139-8.406l7.241-3.606l16.328,8.01L152.879,339.725z"/>
	</g>
</g>
<g id="Composite_Path_2_" opacity="0.0745">
	<g>
		<path fill="#FFFFFF" d="M67.062,16.673L24.867,38.025v53.381l42.865,21.352l42.865-21.352V38.025L67.062,16.673z M52.042,92.931    l-16.459-8.197V60.582l6.43-3.2v23.349l17.206,8.57L52.042,92.931z M84.826,75.665L67.53,84.313l-17.296-8.647v-21.62    l17.025-8.647l17.566,8.647L84.826,75.665L84.826,75.665z M99.879,68.724l-6.429,3.254V48.702l-17.139-8.406l7.24-3.606    l16.329,8.009L99.879,68.724z"/>
	</g>
</g>
<g id="Composite_Path_3_" opacity="0.0745">
	<g>
		<path fill="#FFFFFF" d="M67.062,197.672l-42.195,21.354v53.382l42.865,21.352l42.865-21.352v-53.382L67.062,197.672z     M52.042,273.932l-16.459-8.197v-24.152l6.43-3.2v23.349l17.206,8.57L52.042,273.932z M84.826,256.665l-17.296,8.647    l-17.296-8.647v-21.62l17.025-8.646l17.566,8.646L84.826,256.665L84.826,256.665z M99.879,249.725l-6.429,3.254v-23.276    l-17.139-8.406l7.24-3.606l16.329,8.01L99.879,249.725z"/>
	</g>
</g>
<g id="Composite_Path_4_" opacity="0.0745">
	<g>
		<path fill="#FFFFFF" d="M544.063,107.673l-42.195,21.353v53.381l42.865,21.352l42.864-21.352v-53.381L544.063,107.673z     M529.041,183.931l-16.458-8.197v-24.152l6.43-3.2v23.349l17.206,8.57L529.041,183.931z M561.826,166.665l-17.296,8.648    l-17.296-8.648v-21.62l17.024-8.647l17.566,8.647L561.826,166.665L561.826,166.665z M576.879,159.725l-6.429,3.253v-23.276    l-17.141-8.406l7.241-3.606l16.328,8.009V159.725z"/>
	</g>
</g>
<g id="Composite_Path_5_" opacity="0.0745">
	<g>
		<path fill="#FFFFFF" d="M544.063,287.673l-42.195,21.353v53.382l42.865,21.352l42.864-21.352v-53.382L544.063,287.673z     M529.041,363.932l-16.458-8.197v-24.152l6.43-3.2v23.349l17.206,8.57L529.041,363.932z M561.826,346.665l-17.296,8.647    l-17.296-8.647v-21.62l17.024-8.646l17.566,8.646L561.826,346.665L561.826,346.665z M576.879,339.725l-6.429,3.254v-23.276    l-17.141-8.406l7.241-3.606l16.328,8.01V339.725z"/>
	</g>
</g>
<g id="Composite_Path_6_" opacity="0.0745">
	<g>
		<path fill="#FFFFFF" d="M491.063,16.673l-42.195,21.353v53.381l42.865,21.352l42.864-21.352V38.025L491.063,16.673z     M476.041,92.931l-16.458-8.197V60.581l6.43-3.2V80.73l17.206,8.57L476.041,92.931z M508.826,75.665l-17.296,8.647l-17.296-8.647    v-21.62l17.024-8.647l17.566,8.647L508.826,75.665L508.826,75.665z M523.879,68.724l-6.43,3.254l0.001-23.276l-17.141-8.406    l7.241-3.606l16.328,8.009V68.724z"/>
	</g>
</g>
<g id="Composite_Path_7_" opacity="0.0745">
	<g>
		<path fill="#FFFFFF" d="M491.063,197.672l-42.195,21.354v53.382l42.865,21.352l42.864-21.352v-53.382L491.063,197.672z     M476.041,273.932l-16.458-8.197v-24.152l6.43-3.2v23.349l17.206,8.57L476.041,273.932z M508.826,256.665l-17.296,8.647    l-17.296-8.647v-21.62l17.024-8.646l17.566,8.646L508.826,256.665L508.826,256.665z M523.879,249.725l-6.43,3.254l0.001-23.276    l-17.141-8.406l7.241-3.606l16.328,8.01V249.725z"/>
	</g>
</g>
<g id="Composite_Path_8_" opacity="0.0745">
	<g>
		<path fill="#FFFFFF" d="M332.063,107.673l-42.195,21.353v53.381l42.865,21.352l42.864-21.352v-53.381L332.063,107.673z     M317.041,183.931l-16.458-8.197v-24.152l6.43-3.2v23.349l17.206,8.57L317.041,183.931z M349.826,166.665l-17.296,8.648    l-17.296-8.648v-21.62l17.024-8.647l17.566,8.647L349.826,166.665L349.826,166.665z M364.879,159.725l-6.43,3.253l0.001-23.276    l-17.141-8.406l7.241-3.606l16.328,8.009V159.725z"/>
	</g>
</g>
<g id="Composite_Path_9_" opacity="0.0745">
	<g>
		<path fill="#FFFFFF" d="M332.063,287.673l-42.195,21.353v53.382l42.865,21.352l42.864-21.352v-53.382L332.063,287.673z     M317.041,363.932l-16.458-8.197v-24.152l6.43-3.2v23.349l17.206,8.57L317.041,363.932z M349.826,346.665l-17.296,8.647    l-17.296-8.647v-21.62l17.024-8.646l17.566,8.646L349.826,346.665L349.826,346.665z M364.879,339.725l-6.43,3.254l0.001-23.276    l-17.141-8.406l7.241-3.606l16.328,8.01V339.725z"/>
	</g>
</g>
<g id="Composite_Path_10_" opacity="0.0745">
	<g>
		<path fill="#FFFFFF" d="M279.062,16.673l-42.195,21.353v53.381l42.865,21.352l42.865-21.352V38.025L279.062,16.673z     M264.041,92.931l-16.458-8.197V60.581l6.43-3.2V80.73l17.206,8.57L264.041,92.931z M296.826,75.665l-17.296,8.647l-17.296-8.647    v-21.62l17.025-8.647l17.566,8.647L296.826,75.665L296.826,75.665z M311.879,68.724l-6.429,3.254V48.701l-17.14-8.406l7.241-3.606    l16.328,8.009V68.724z"/>
	</g>
</g>
<g id="Composite_Path_11_" opacity="0.0745">
	<g>
		<path fill="#FFFFFF" d="M279.062,197.672l-42.195,21.354v53.382l42.865,21.352l42.865-21.352v-53.382L279.062,197.672z     M264.041,273.932l-16.458-8.197v-24.152l6.43-3.2v23.349l17.206,8.57L264.041,273.932z M296.826,256.665l-17.296,8.647    l-17.296-8.647v-21.62l17.025-8.646l17.566,8.646L296.826,256.665L296.826,256.665z M311.879,249.725l-6.429,3.254v-23.276    l-17.14-8.406l7.241-3.606l16.328,8.01V249.725z"/>
	</g>
</g>
<g id="Composite_Path_12_" opacity="0.0745">
	<g>
		<path fill="#FFFFFF" d="M756.063,107.673l-42.195,21.353v53.381l42.865,21.352l42.864-21.352v-53.381L756.063,107.673z     M741.041,183.931l-16.458-8.197v-24.152l6.43-3.2v23.349l17.206,8.57L741.041,183.931z M773.826,166.665l-17.296,8.648    l-17.296-8.648v-21.62l17.024-8.647l17.566,8.647L773.826,166.665L773.826,166.665z M788.879,159.725l-6.43,3.253l0.001-23.276    l-17.141-8.406l7.241-3.606l16.328,8.009V159.725z"/>
	</g>
</g>
<g id="Composite_Path_13_" opacity="0.0745">
	<g>
		<path fill="#FFFFFF" d="M756.063,287.673l-42.195,21.353v53.382l42.865,21.352l42.864-21.352v-53.382L756.063,287.673z     M741.041,363.932l-16.458-8.197v-24.152l6.43-3.2v23.349l17.206,8.57L741.041,363.932z M773.826,346.665l-17.296,8.647    l-17.296-8.647v-21.62l17.024-8.646l17.566,8.646L773.826,346.665L773.826,346.665z M788.879,339.725l-6.43,3.254l0.001-23.276    l-17.141-8.406l7.241-3.606l16.328,8.01V339.725z"/>
	</g>
</g>
<g id="Composite_Path_14_" opacity="0.0745">
	<g>
		<path fill="#FFFFFF" d="M703.063,16.673l-42.195,21.353v53.381l42.865,21.352l42.864-21.352V38.025L703.063,16.673z     M688.041,92.931l-16.458-8.197V60.581l6.43-3.2V80.73l17.206,8.57L688.041,92.931z M720.826,75.665l-17.296,8.647l-17.296-8.647    v-21.62l17.024-8.647l17.566,8.647L720.826,75.665L720.826,75.665z M735.879,68.724l-6.43,3.254l0.001-23.276l-17.14-8.406    l7.24-3.606l16.328,8.009V68.724z"/>
	</g>
</g>
<g id="Composite_Path_15_" opacity="0.0745">
	<g>
		<path fill="#FFFFFF" d="M703.063,197.672l-42.195,21.354v53.382l42.865,21.352l42.864-21.352v-53.382L703.063,197.672z     M688.041,273.932l-16.458-8.197v-24.152l6.43-3.2v23.349l17.206,8.57L688.041,273.932z M720.826,256.665l-17.296,8.647    l-17.296-8.647v-21.62l17.024-8.646l17.566,8.646L720.826,256.665L720.826,256.665z M735.879,249.725l-6.43,3.254l0.001-23.276    l-17.14-8.406l7.24-3.606l16.328,8.01V249.725z"/>
	</g>
</g>
<g id="Composite_Path_16_" opacity="0.0745">
	<g>
		<path fill="#FFFFFF" d="M1073.063,107.673l-42.195,21.353v53.381l42.865,21.352l42.864-21.352v-53.381L1073.063,107.673z     M1058.041,183.931l-16.458-8.197v-24.152l6.43-3.2v23.349l17.206,8.57L1058.041,183.931z M1090.826,166.665l-17.296,8.648    l-17.296-8.648v-21.62l17.024-8.647l17.566,8.647L1090.826,166.665L1090.826,166.665z M1105.879,159.725l-6.43,3.253l0.001-23.276    l-17.141-8.406l7.241-3.606l16.328,8.009V159.725z"/>
	</g>
</g>
<g id="Composite_Path_17_" opacity="0.0745">
	<g>
		<path fill="#FFFFFF" d="M1073.063,287.673l-42.195,21.353v53.382l42.865,21.352l42.864-21.352v-53.382L1073.063,287.673z     M1058.041,363.932l-16.458-8.197v-24.152l6.43-3.2v23.349l17.206,8.57L1058.041,363.932z M1090.826,346.665l-17.296,8.647    l-17.296-8.647v-21.62l17.024-8.646l17.566,8.646L1090.826,346.665L1090.826,346.665z M1105.879,339.725l-6.43,3.254l0.001-23.276    l-17.141-8.406l7.241-3.606l16.328,8.01V339.725z"/>
	</g>
</g>
<g id="Composite_Path_18_" opacity="0.0745">
	<g>
		<path fill="#FFFFFF" d="M1020.063,16.673l-42.195,21.353v53.381l42.865,21.352l42.864-21.352V38.025L1020.063,16.673z     M1005.041,92.931l-16.458-8.197V60.581l6.43-3.2V80.73l17.206,8.57L1005.041,92.931z M1037.826,75.665l-17.296,8.647    l-17.296-8.647v-21.62l17.024-8.647l17.566,8.647L1037.826,75.665L1037.826,75.665z M1052.879,68.724l-6.43,3.254l0.001-23.276    l-17.141-8.406l7.241-3.606l16.328,8.009V68.724z"/>
	</g>
</g>
<g id="Composite_Path_19_" opacity="0.0745">
	<g>
		<path fill="#FFFFFF" d="M1020.063,197.672l-42.195,21.354v53.382l42.865,21.352l42.864-21.352v-53.382L1020.063,197.672z     M1005.041,273.932l-16.458-8.197v-24.152l6.43-3.2v23.349l17.206,8.57L1005.041,273.932z M1037.826,256.665l-17.296,8.647    l-17.296-8.647v-21.62l17.024-8.646l17.566,8.646L1037.826,256.665L1037.826,256.665z M1052.879,249.725l-6.43,3.254l0.001-23.276    l-17.141-8.406l7.241-3.606l16.328,8.01V249.725z"/>
	</g>
</g>
<g id="Composite_Path_20_" opacity="0.0745">
	<g>
		<path fill="#FFFFFF" d="M226.062,107.673l-42.195,21.353v53.381l42.865,21.352l42.865-21.352v-53.381L226.062,107.673z     M211.041,183.931l-16.458-8.197v-24.152l6.43-3.2v23.349l17.206,8.57L211.041,183.931z M243.826,166.665l-17.296,8.648    l-17.296-8.648v-21.62l17.025-8.647l17.566,8.647L243.826,166.665L243.826,166.665z M258.879,159.725l-6.429,3.253v-23.276    l-17.139-8.406l7.24-3.606l16.328,8.009V159.725z"/>
	</g>
</g>
<g id="Composite_Path_21_" opacity="0.0745">
	<g>
		<path fill="#FFFFFF" d="M226.062,287.673l-42.195,21.353v53.382l42.865,21.352l42.865-21.352v-53.382L226.062,287.673z     M211.041,363.932l-16.458-8.197v-24.152l6.43-3.2v23.349l17.206,8.57L211.041,363.932z M243.826,346.665l-17.296,8.647    l-17.296-8.647v-21.62l17.025-8.646l17.566,8.646L243.826,346.665L243.826,346.665z M258.879,339.725l-6.429,3.254v-23.276    l-17.139-8.406l7.24-3.606l16.328,8.01V339.725z"/>
	</g>
</g>
<g id="Composite_Path_22_" opacity="0.0745">
	<g>
		<path fill="#FFFFFF" d="M173.062,16.673l-42.195,21.353v53.381l42.865,21.352l42.865-21.352V38.025L173.062,16.673z     M158.041,92.931l-16.458-8.197l0.001-24.152l6.429-3.2v23.349l17.207,8.57L158.041,92.931z M190.826,75.665l-17.296,8.647    l-17.296-8.647v-21.62l17.025-8.647l17.566,8.647L190.826,75.665L190.826,75.665z M205.879,68.724l-6.429,3.254V48.701    l-17.14-8.406l7.241-3.606l16.328,8.009V68.724z"/>
	</g>
</g>
<g id="Composite_Path_23_" opacity="0.0745">
	<g>
		<path fill="#FFFFFF" d="M173.062,197.672l-42.195,21.354v53.382l42.865,21.352l42.865-21.352v-53.382L173.062,197.672z     M158.041,273.932l-16.458-8.197l0.001-24.152l6.429-3.2v23.349l17.207,8.57L158.041,273.932z M190.826,256.665l-17.296,8.647    l-17.296-8.647v-21.62l17.025-8.646l17.566,8.646L190.826,256.665L190.826,256.665z M205.879,249.725l-6.429,3.254v-23.276    l-17.14-8.406l7.241-3.606l16.328,8.01V249.725z"/>
	</g>
</g>
<g id="Composite_Path_24_" opacity="0.0745">
	<g>
		<path fill="#FFFFFF" d="M650.063,107.673l-42.195,21.353v53.381l42.865,21.352l42.864-21.352v-53.381L650.063,107.673z     M635.041,183.931l-16.458-8.197v-24.152l6.43-3.2v23.349l17.206,8.57L635.041,183.931z M667.826,166.665l-17.296,8.648    l-17.296-8.648v-21.62l17.024-8.647l17.566,8.647L667.826,166.665L667.826,166.665z M682.879,159.725l-6.43,3.253l0.001-23.276    l-17.141-8.406l7.241-3.606l16.328,8.009V159.725z"/>
	</g>
</g>
<g id="Composite_Path_25_" opacity="0.0745">
	<g>
		<path fill="#FFFFFF" d="M650.063,287.673l-42.195,21.353v53.382l42.865,21.352l42.864-21.352v-53.382L650.063,287.673z     M635.041,363.932l-16.458-8.197v-24.152l6.43-3.2v23.349l17.206,8.57L635.041,363.932z M667.826,346.665l-17.296,8.647    l-17.296-8.647v-21.62l17.024-8.646l17.566,8.646L667.826,346.665L667.826,346.665z M682.879,339.725l-6.43,3.254l0.001-23.276    l-17.141-8.406l7.241-3.606l16.328,8.01V339.725z"/>
	</g>
</g>
<g id="Composite_Path_26_" opacity="0.0745">
	<g>
		<path fill="#FFFFFF" d="M597.063,16.673l-42.195,21.353v53.381l42.865,21.352l42.864-21.352V38.025L597.063,16.673z     M582.041,92.931l-16.458-8.197V60.581l6.43-3.2V80.73l17.206,8.57L582.041,92.931z M614.826,75.665l-17.296,8.647l-17.296-8.647    v-21.62l17.024-8.647l17.566,8.647L614.826,75.665L614.826,75.665z M629.879,68.724l-6.43,3.254l0.001-23.276l-17.14-8.406    l7.24-3.606l16.328,8.009V68.724z"/>
	</g>
</g>
<g id="Composite_Path_27_" opacity="0.0745">
	<g>
		<path fill="#FFFFFF" d="M597.063,197.672l-42.195,21.354v53.382l42.865,21.352l42.864-21.352v-53.382L597.063,197.672z     M582.041,273.932l-16.458-8.197v-24.152l6.43-3.2v23.349l17.206,8.57L582.041,273.932z M614.826,256.665l-17.296,8.647    l-17.296-8.647v-21.62l17.024-8.646l17.566,8.646L614.826,256.665L614.826,256.665z M629.879,249.725l-6.43,3.254l0.001-23.276    l-17.14-8.406l7.24-3.606l16.328,8.01V249.725z"/>
	</g>
</g>
<g id="Composite_Path_28_" opacity="0.0745">
	<g>
		<path fill="#FFFFFF" d="M967.063,107.673l-42.195,21.353v53.381l42.865,21.352l42.864-21.352v-53.381L967.063,107.673z     M952.041,183.931l-16.458-8.197v-24.152l6.43-3.2v23.349l17.206,8.57L952.041,183.931z M984.826,166.665l-17.296,8.648    l-17.296-8.648v-21.62l17.024-8.647l17.566,8.647L984.826,166.665L984.826,166.665z M999.879,159.725l-6.429,3.253v-23.276    l-17.141-8.406l7.241-3.606l16.328,8.009V159.725z"/>
	</g>
</g>
<g id="Composite_Path_29_" opacity="0.0745">
	<g>
		<path fill="#FFFFFF" d="M967.063,287.673l-42.195,21.353v53.382l42.865,21.352l42.864-21.352v-53.382L967.063,287.673z     M952.041,363.932l-16.458-8.197v-24.152l6.43-3.2v23.349l17.206,8.57L952.041,363.932z M984.826,346.665l-17.296,8.647    l-17.296-8.647v-21.62l17.024-8.646l17.566,8.646L984.826,346.665L984.826,346.665z M999.879,339.725l-6.429,3.254v-23.276    l-17.141-8.406l7.241-3.606l16.328,8.01V339.725z"/>
	</g>
</g>
<g id="Composite_Path_30_" opacity="0.0745">
	<g>
		<path fill="#FFFFFF" d="M914.063,16.673l-42.195,21.353v53.381l42.865,21.352l42.864-21.352V38.025L914.063,16.673z     M899.041,92.931l-16.458-8.197V60.581l6.43-3.2V80.73l17.206,8.57L899.041,92.931z M931.826,75.665l-17.296,8.647l-17.296-8.647    v-21.62l17.024-8.647l17.566,8.647L931.826,75.665L931.826,75.665z M946.879,68.724l-6.43,3.254l0.001-23.276l-17.14-8.406    l7.24-3.606l16.328,8.009V68.724z"/>
	</g>
</g>
<g id="Composite_Path_31_" opacity="0.0745">
	<g>
		<path fill="#FFFFFF" d="M914.063,197.672l-42.195,21.354v53.382l42.865,21.352l42.864-21.352v-53.382L914.063,197.672z     M899.041,273.932l-16.458-8.197v-24.152l6.43-3.2v23.349l17.206,8.57L899.041,273.932z M931.826,256.665l-17.296,8.647    l-17.296-8.647v-21.62l17.024-8.646l17.566,8.646L931.826,256.665L931.826,256.665z M946.879,249.725l-6.43,3.254l0.001-23.276    l-17.14-8.406l7.24-3.606l16.328,8.01V249.725z"/>
	</g>
</g>
<g id="Composite_Path_32_" opacity="0.0745">
	<g>
		<path fill="#FFFFFF" d="M438.063,107.673l-42.195,21.353v53.381l42.865,21.352l42.864-21.352v-53.381L438.063,107.673z     M423.041,183.931l-16.458-8.197v-24.152l6.43-3.2v23.349l17.206,8.57L423.041,183.931z M455.826,166.665l-17.296,8.648    l-17.296-8.648v-21.62l17.024-8.647l17.566,8.647L455.826,166.665L455.826,166.665z M470.879,159.725l-6.429,3.253v-23.276    l-17.141-8.406l7.241-3.606l16.328,8.009V159.725z"/>
	</g>
</g>
<g id="Composite_Path_33_" opacity="0.0745">
	<g>
		<path fill="#FFFFFF" d="M438.063,287.673l-42.195,21.353v53.382l42.865,21.352l42.864-21.352v-53.382L438.063,287.673z     M423.041,363.932l-16.458-8.197v-24.152l6.43-3.2v23.349l17.206,8.57L423.041,363.932z M455.826,346.665l-17.296,8.647    l-17.296-8.647v-21.62l17.024-8.646l17.566,8.646L455.826,346.665L455.826,346.665z M470.879,339.725l-6.429,3.254v-23.276    l-17.141-8.406l7.241-3.606l16.328,8.01V339.725z"/>
	</g>
</g>
<g id="Composite_Path_34_" opacity="0.0745">
	<g>
		<path fill="#FFFFFF" d="M385.063,16.673l-42.195,21.353v53.381l42.865,21.352l42.864-21.352V38.025L385.063,16.673z     M370.041,92.931l-16.458-8.197V60.581l6.43-3.2V80.73l17.206,8.57L370.041,92.931z M402.826,75.665l-17.296,8.647l-17.296-8.647    v-21.62l17.024-8.647l17.566,8.647L402.826,75.665L402.826,75.665z M417.879,68.724l-6.429,3.254V48.701l-17.14-8.406l7.24-3.606    l16.328,8.009V68.724z"/>
	</g>
</g>
<g id="Composite_Path_35_" opacity="0.0745">
	<g>
		<path fill="#FFFFFF" d="M385.063,197.672l-42.195,21.354v53.382l42.865,21.352l42.864-21.352v-53.382L385.063,197.672z     M370.041,273.932l-16.458-8.197v-24.152l6.43-3.2v23.349l17.206,8.57L370.041,273.932z M402.826,256.665l-17.296,8.647    l-17.296-8.647v-21.62l17.024-8.646l17.566,8.646L402.826,256.665L402.826,256.665z M417.879,249.725l-6.429,3.254v-23.276    l-17.14-8.406l7.24-3.606l16.328,8.01V249.725z"/>
	</g>
</g>
<g id="Composite_Path_36_" opacity="0.0745">
	<g>
		<path fill="#FFFFFF" d="M862.063,107.673l-42.195,21.353v53.381l42.865,21.352l42.864-21.352v-53.381L862.063,107.673z     M847.041,183.931l-16.458-8.197v-24.152l6.43-3.2v23.349l17.206,8.57L847.041,183.931z M879.826,166.665l-17.296,8.648    l-17.296-8.648v-21.62l17.024-8.647l17.566,8.647L879.826,166.665L879.826,166.665z M894.879,159.725l-6.43,3.253l0.001-23.276    l-17.141-8.406l7.241-3.606l16.328,8.009V159.725z"/>
	</g>
</g>
<g id="Composite_Path_37_" opacity="0.0745">
	<g>
		<path fill="#FFFFFF" d="M862.063,287.673l-42.195,21.353v53.382l42.865,21.352l42.864-21.352v-53.382L862.063,287.673z     M847.041,363.932l-16.458-8.197v-24.152l6.43-3.2v23.349l17.206,8.57L847.041,363.932z M879.826,346.665l-17.296,8.647    l-17.296-8.647v-21.62l17.024-8.646l17.566,8.646L879.826,346.665L879.826,346.665z M894.879,339.725l-6.43,3.254l0.001-23.276    l-17.141-8.406l7.241-3.606l16.328,8.01V339.725z"/>
	</g>
</g>
<g id="Composite_Path_38_" opacity="0.0745">
	<g>
		<path fill="#FFFFFF" d="M809.063,16.673l-42.195,21.353v53.381l42.865,21.352l42.864-21.352V38.025L809.063,16.673z     M794.041,92.931l-16.458-8.197V60.581l6.43-3.2V80.73l17.206,8.57L794.041,92.931z M826.826,75.665l-17.296,8.647l-17.296-8.647    v-21.62l17.024-8.647l17.566,8.647L826.826,75.665L826.826,75.665z M841.879,68.724l-6.429,3.254V48.701l-17.141-8.406    l7.241-3.606l16.328,8.009V68.724z"/>
	</g>
</g>
<g id="Composite_Path_39_" opacity="0.0745">
	<g>
		<path fill="#FFFFFF" d="M809.063,197.672l-42.195,21.354v53.382l42.865,21.352l42.864-21.352v-53.382L809.063,197.672z     M794.041,273.932l-16.458-8.197v-24.152l6.43-3.2v23.349l17.206,8.57L794.041,273.932z M826.826,256.665l-17.296,8.647    l-17.296-8.647v-21.62l17.024-8.646l17.566,8.646L826.826,256.665L826.826,256.665z M841.879,249.725l-6.429,3.254v-23.276    l-17.141-8.406l7.241-3.606l16.328,8.01V249.725z"/>
	</g>
</g>
<g id="Composite_Path_40_" opacity="0.0745">
	<g>
		<path fill="#FFFFFF" d="M1179.063,107.673l-42.195,21.353v53.381l42.865,21.352l42.864-21.352v-53.381L1179.063,107.673z     M1164.041,183.931l-16.458-8.197v-24.152l6.43-3.2v23.349l17.206,8.57L1164.041,183.931z M1196.826,166.665l-17.296,8.648    l-17.296-8.648v-21.62l17.024-8.647l17.566,8.647L1196.826,166.665L1196.826,166.665z M1211.879,159.725l-6.43,3.253l0.001-23.276    l-17.141-8.406l7.241-3.606l16.328,8.009V159.725z"/>
	</g>
</g>
<g id="Composite_Path_41_" opacity="0.0745">
	<g>
		<path fill="#FFFFFF" d="M1179.063,287.673l-42.195,21.353v53.382l42.865,21.352l42.864-21.352v-53.382L1179.063,287.673z     M1164.041,363.932l-16.458-8.197v-24.152l6.43-3.2v23.349l17.206,8.57L1164.041,363.932z M1196.826,346.665l-17.296,8.647    l-17.296-8.647v-21.62l17.024-8.646l17.566,8.646L1196.826,346.665L1196.826,346.665z M1211.879,339.725l-6.43,3.254l0.001-23.276    l-17.141-8.406l7.241-3.606l16.328,8.01V339.725z"/>
	</g>
</g>
<g id="Composite_Path_42_" opacity="0.0745">
	<g>
		<path fill="#FFFFFF" d="M1126.063,16.673l-42.195,21.353v53.381l42.865,21.352l42.864-21.352V38.025L1126.063,16.673z     M1111.041,92.931l-16.458-8.197V60.581l6.43-3.2V80.73l17.206,8.57L1111.041,92.931z M1143.826,75.665l-17.296,8.647    l-17.296-8.647v-21.62l17.024-8.647l17.566,8.647L1143.826,75.665L1143.826,75.665z M1158.879,68.724l-6.43,3.254l0.001-23.276    l-17.141-8.406l7.241-3.606l16.328,8.009V68.724z"/>
	</g>
</g>
<g id="Composite_Path_43_" opacity="0.0745">
	<g>
		<path fill="#FFFFFF" d="M1126.063,197.672l-42.195,21.354v53.382l42.865,21.352l42.864-21.352v-53.382L1126.063,197.672z     M1111.041,273.932l-16.458-8.197v-24.152l6.43-3.2v23.349l17.206,8.57L1111.041,273.932z M1143.826,256.665l-17.296,8.647    l-17.296-8.647v-21.62l17.024-8.646l17.566,8.646L1143.826,256.665L1143.826,256.665z M1158.879,249.725l-6.43,3.254l0.001-23.276    l-17.141-8.406l7.241-3.606l16.328,8.01V249.725z"/>
	</g>
</g>
<g id="Composite_Path_44_" opacity="0.0745">
	<g>
		<path fill="#FFFFFF" d="M1603.063,107.673l-42.195,21.353v53.381l42.865,21.352l42.864-21.352v-53.381L1603.063,107.673z     M1588.041,183.931l-16.458-8.197v-24.152l6.43-3.2v23.349l17.206,8.57L1588.041,183.931z M1620.826,166.665l-17.296,8.648    l-17.296-8.648v-21.62l17.024-8.647l17.566,8.647L1620.826,166.665L1620.826,166.665z M1635.879,159.725l-6.429,3.253v-23.276    l-17.14-8.406l7.24-3.606l16.328,8.009V159.725z"/>
	</g>
</g>
<g id="Composite_Path_45_" opacity="0.0745">
	<g>
		<path fill="#FFFFFF" d="M1603.063,287.673l-42.195,21.353v53.382l42.865,21.352l42.864-21.352v-53.382L1603.063,287.673z     M1588.041,363.932l-16.458-8.197v-24.152l6.43-3.2v23.349l17.206,8.57L1588.041,363.932z M1620.826,346.665l-17.296,8.647    l-17.296-8.647v-21.62l17.024-8.646l17.566,8.646L1620.826,346.665L1620.826,346.665z M1635.879,339.725l-6.429,3.254v-23.276    l-17.14-8.406l7.24-3.606l16.328,8.01V339.725z"/>
	</g>
</g>
<g id="Composite_Path_46_" opacity="0.0745">
	<g>
		<path fill="#FFFFFF" d="M1550.063,16.673l-42.195,21.353v53.381l42.865,21.352l42.864-21.352V38.025L1550.063,16.673z     M1535.041,92.931l-16.458-8.197V60.581l6.43-3.2V80.73l17.206,8.57L1535.041,92.931z M1567.826,75.665l-17.296,8.647    l-17.296-8.647v-21.62l17.024-8.647l17.566,8.647L1567.826,75.665L1567.826,75.665z M1582.879,68.724l-6.43,3.254l0.001-23.276    l-17.141-8.406l7.241-3.606l16.328,8.009V68.724z"/>
	</g>
</g>
<g id="Composite_Path_47_" opacity="0.0745">
	<g>
		<path fill="#FFFFFF" d="M1550.063,197.672l-42.195,21.354v53.382l42.865,21.352l42.864-21.352v-53.382L1550.063,197.672z     M1535.041,273.932l-16.458-8.197v-24.152l6.43-3.2v23.349l17.206,8.57L1535.041,273.932z M1567.826,256.665l-17.296,8.647    l-17.296-8.647v-21.62l17.024-8.646l17.566,8.646L1567.826,256.665L1567.826,256.665z M1582.879,249.725l-6.43,3.254l0.001-23.276    l-17.141-8.406l7.241-3.606l16.328,8.01V249.725z"/>
	</g>
</g>
<g id="Composite_Path_48_" opacity="0.0745">
	<g>
		<path fill="#FFFFFF" d="M1391.063,107.673l-42.195,21.353v53.381l42.865,21.352l42.864-21.352v-53.381L1391.063,107.673z     M1376.041,183.931l-16.458-8.197v-24.152l6.43-3.2l-0.001,23.349l17.207,8.57L1376.041,183.931z M1408.826,166.665l-17.296,8.648    l-17.296-8.648v-21.62l17.024-8.647l17.566,8.647L1408.826,166.665L1408.826,166.665z M1423.879,159.725l-6.43,3.253l0.001-23.276    l-17.141-8.406l7.241-3.606l16.328,8.009V159.725z"/>
	</g>
</g>
<g id="Composite_Path_49_" opacity="0.0745">
	<g>
		<path fill="#FFFFFF" d="M1391.063,287.673l-42.195,21.353v53.382l42.865,21.352l42.864-21.352v-53.382L1391.063,287.673z     M1376.041,363.932l-16.458-8.197v-24.152l6.43-3.2l-0.001,23.349l17.207,8.57L1376.041,363.932z M1408.826,346.665l-17.296,8.647    l-17.296-8.647v-21.62l17.024-8.646l17.566,8.646L1408.826,346.665L1408.826,346.665z M1423.879,339.725l-6.43,3.254l0.001-23.276    l-17.141-8.406l7.241-3.606l16.328,8.01V339.725z"/>
	</g>
</g>
<g id="Composite_Path_50_" opacity="0.0745">
	<g>
		<path fill="#FFFFFF" d="M1338.063,16.673l-42.195,21.353v53.381l42.865,21.352l42.864-21.352V38.025L1338.063,16.673z     M1323.041,92.931l-16.458-8.197V60.581l6.43-3.2V80.73l17.206,8.57L1323.041,92.931z M1355.826,75.665l-17.296,8.647    l-17.296-8.647v-21.62l17.024-8.647l17.566,8.647L1355.826,75.665L1355.826,75.665z M1370.879,68.724l-6.43,3.254l0.001-23.276    l-17.141-8.406l7.241-3.606l16.328,8.009V68.724z"/>
	</g>
</g>
<g id="Composite_Path_51_" opacity="0.0745">
	<g>
		<path fill="#FFFFFF" d="M1338.063,197.672l-42.195,21.354v53.382l42.865,21.352l42.864-21.352v-53.382L1338.063,197.672z     M1323.041,273.932l-16.458-8.197v-24.152l6.43-3.2v23.349l17.206,8.57L1323.041,273.932z M1355.826,256.665l-17.296,8.647    l-17.296-8.647v-21.62l17.024-8.646l17.566,8.646L1355.826,256.665L1355.826,256.665z M1370.879,249.725l-6.43,3.254l0.001-23.276    l-17.141-8.406l7.241-3.606l16.328,8.01V249.725z"/>
	</g>
</g>
<g id="Composite_Path_52_" opacity="0.0745">
	<g>
		<path fill="#FFFFFF" d="M1815.063,107.673l-42.195,21.353v53.381l42.865,21.352l42.864-21.352v-53.381L1815.063,107.673z     M1800.041,183.931l-16.458-8.197v-24.152l6.43-3.2v23.349l17.206,8.57L1800.041,183.931z M1832.826,166.665l-17.296,8.648    l-17.296-8.648v-21.62l17.024-8.647l17.566,8.647L1832.826,166.665L1832.826,166.665z M1847.879,159.725l-6.43,3.253l0.001-23.276    l-17.141-8.406l7.241-3.606l16.328,8.009V159.725z"/>
	</g>
</g>
<g id="Composite_Path_53_" opacity="0.0745">
	<g>
		<path fill="#FFFFFF" d="M1815.063,287.673l-42.195,21.353v53.382l42.865,21.352l42.864-21.352v-53.382L1815.063,287.673z     M1800.041,363.932l-16.458-8.197v-24.152l6.43-3.2v23.349l17.206,8.57L1800.041,363.932z M1832.826,346.665l-17.296,8.647    l-17.296-8.647v-21.62l17.024-8.646l17.566,8.646L1832.826,346.665L1832.826,346.665z M1847.879,339.725l-6.43,3.254l0.001-23.276    l-17.141-8.406l7.241-3.606l16.328,8.01V339.725z"/>
	</g>
</g>
<g id="Composite_Path_54_" opacity="0.0745">
	<g>
		<path fill="#FFFFFF" d="M1762.063,16.673l-42.195,21.353v53.381l42.865,21.352l42.864-21.352V38.025L1762.063,16.673z     M1747.041,92.931l-16.459-8.197l0.001-24.152l6.43-3.2v23.349l17.206,8.57L1747.041,92.931z M1779.826,75.665l-17.296,8.647    l-17.296-8.647v-21.62l17.024-8.647l17.566,8.647L1779.826,75.665L1779.826,75.665z M1794.879,68.724l-6.429,3.254V48.701    l-17.14-8.406l7.24-3.606l16.328,8.009V68.724z"/>
	</g>
</g>
<g id="Composite_Path_55_" opacity="0.0745">
	<g>
		<path fill="#FFFFFF" d="M1762.063,197.672l-42.195,21.354v53.382l42.865,21.352l42.864-21.352v-53.382L1762.063,197.672z     M1747.041,273.932l-16.459-8.197l0.001-24.152l6.43-3.2v23.349l17.206,8.57L1747.041,273.932z M1779.826,256.665l-17.296,8.647    l-17.296-8.647v-21.62l17.024-8.646l17.566,8.646L1779.826,256.665L1779.826,256.665z M1794.879,249.725l-6.429,3.254v-23.276    l-17.14-8.406l7.24-3.606l16.328,8.01V249.725z"/>
	</g>
</g>
<g id="Composite_Path_56_" opacity="0.0745">
	<g>
		<path fill="#FFFFFF" d="M2132.063,107.673l-42.195,21.353v53.381l42.865,21.352l42.864-21.352v-53.381L2132.063,107.673z     M2117.041,183.931l-16.458-8.197v-24.152l6.43-3.2v23.349l17.206,8.57L2117.041,183.931z M2149.826,166.665l-17.296,8.648    l-17.296-8.648v-21.62l17.024-8.647l17.566,8.647L2149.826,166.665L2149.826,166.665z M2164.879,159.725l-6.43,3.253l0.001-23.276    l-17.14-8.406l7.24-3.606l16.328,8.009V159.725z"/>
	</g>
</g>
<g id="Composite_Path_57_" opacity="0.0745">
	<g>
		<path fill="#FFFFFF" d="M2132.063,287.673l-42.195,21.353v53.382l42.865,21.352l42.864-21.352v-53.382L2132.063,287.673z     M2117.041,363.932l-16.458-8.197v-24.152l6.43-3.2v23.349l17.206,8.57L2117.041,363.932z M2149.826,346.665l-17.296,8.647    l-17.296-8.647v-21.62l17.024-8.646l17.566,8.646L2149.826,346.665L2149.826,346.665z M2164.879,339.725l-6.43,3.254l0.001-23.276    l-17.14-8.406l7.24-3.606l16.328,8.01V339.725z"/>
	</g>
</g>
<g id="Composite_Path_58_" opacity="0.0745">
	<g>
		<path fill="#FFFFFF" d="M2079.063,16.673l-42.195,21.353v53.381l42.865,21.352l42.865-21.352V38.025L2079.063,16.673z     M2064.041,92.931l-16.458-8.197V60.581l6.43-3.2V80.73l17.206,8.57L2064.041,92.931z M2096.826,75.665l-17.296,8.647    l-17.296-8.647v-21.62l17.024-8.647l17.566,8.647L2096.826,75.665L2096.826,75.665z M2111.879,68.724l-6.43,3.254l0.001-23.276    l-17.14-8.406l7.24-3.606l16.328,8.009V68.724z"/>
	</g>
</g>
<g id="Composite_Path_59_" opacity="0.0745">
	<g>
		<path fill="#FFFFFF" d="M2079.063,197.672l-42.195,21.354v53.382l42.865,21.352l42.865-21.352v-53.382L2079.063,197.672z     M2064.041,273.932l-16.458-8.197v-24.152l6.43-3.2v23.349l17.206,8.57L2064.041,273.932z M2096.826,256.665l-17.296,8.647    l-17.296-8.647v-21.62l17.024-8.646l17.566,8.646L2096.826,256.665L2096.826,256.665z M2111.879,249.725l-6.43,3.254l0.001-23.276    l-17.14-8.406l7.24-3.606l16.328,8.01V249.725z"/>
	</g>
</g>
<g id="Composite_Path_60_" opacity="0.0745">
	<g>
		<path fill="#FFFFFF" d="M1285.063,107.673l-42.195,21.353v53.381l42.865,21.352l42.864-21.352v-53.381L1285.063,107.673z     M1270.041,183.931l-16.458-8.197v-24.152l6.43-3.2v23.349l17.206,8.57L1270.041,183.931z M1302.826,166.665l-17.296,8.648    l-17.296-8.648v-21.62l17.024-8.647l17.566,8.647L1302.826,166.665L1302.826,166.665z M1317.879,159.725l-6.43,3.253l0.001-23.276    l-17.14-8.406l7.24-3.606l16.328,8.009V159.725z"/>
	</g>
</g>
<g id="Composite_Path_61_" opacity="0.0745">
	<g>
		<path fill="#FFFFFF" d="M1285.063,287.673l-42.195,21.353v53.382l42.865,21.352l42.864-21.352v-53.382L1285.063,287.673z     M1270.041,363.932l-16.458-8.197v-24.152l6.43-3.2v23.349l17.206,8.57L1270.041,363.932z M1302.826,346.665l-17.296,8.647    l-17.296-8.647v-21.62l17.024-8.646l17.566,8.646L1302.826,346.665L1302.826,346.665z M1317.879,339.725l-6.43,3.254l0.001-23.276    l-17.14-8.406l7.24-3.606l16.328,8.01V339.725z"/>
	</g>
</g>
<g id="Composite_Path_62_" opacity="0.0745">
	<g>
		<path fill="#FFFFFF" d="M1232.063,16.673l-42.195,21.353v53.381l42.865,21.352l42.864-21.352V38.025L1232.063,16.673z     M1217.041,92.931l-16.458-8.197V60.581l6.43-3.2l-0.001,23.349l17.207,8.57L1217.041,92.931z M1249.826,75.665l-17.296,8.647    l-17.296-8.647v-21.62l17.024-8.647l17.566,8.647L1249.826,75.665L1249.826,75.665z M1264.879,68.724l-6.43,3.254l0.001-23.276    l-17.141-8.406l7.241-3.606l16.328,8.009V68.724z"/>
	</g>
</g>
<g id="Composite_Path_63_" opacity="0.0745">
	<g>
		<path fill="#FFFFFF" d="M1232.063,197.672l-42.195,21.354v53.382l42.865,21.352l42.864-21.352v-53.382L1232.063,197.672z     M1217.041,273.932l-16.458-8.197v-24.152l6.43-3.2l-0.001,23.349l17.207,8.57L1217.041,273.932z M1249.826,256.665l-17.296,8.647    l-17.296-8.647v-21.62l17.024-8.646l17.566,8.646L1249.826,256.665L1249.826,256.665z M1264.879,249.725l-6.43,3.254l0.001-23.276    l-17.141-8.406l7.241-3.606l16.328,8.01V249.725z"/>
	</g>
</g>
<g id="Composite_Path_64_" opacity="0.0745">
	<g>
		<path fill="#FFFFFF" d="M1709.063,107.673l-42.195,21.353v53.381l42.865,21.352l42.864-21.352v-53.381L1709.063,107.673z     M1694.041,183.931l-16.458-8.197v-24.152l6.43-3.2v23.349l17.206,8.57L1694.041,183.931z M1726.826,166.665l-17.296,8.648    l-17.296-8.648v-21.62l17.024-8.647l17.566,8.647L1726.826,166.665L1726.826,166.665z M1741.879,159.725l-6.43,3.253l0.001-23.276    l-17.141-8.406l7.241-3.606l16.328,8.009V159.725z"/>
	</g>
</g>
<g id="Composite_Path_65_" opacity="0.0745">
	<g>
		<path fill="#FFFFFF" d="M1709.063,287.673l-42.195,21.353v53.382l42.865,21.352l42.864-21.352v-53.382L1709.063,287.673z     M1694.041,363.932l-16.458-8.197v-24.152l6.43-3.2v23.349l17.206,8.57L1694.041,363.932z M1726.826,346.665l-17.296,8.647    l-17.296-8.647v-21.62l17.024-8.646l17.566,8.646L1726.826,346.665L1726.826,346.665z M1741.879,339.725l-6.43,3.254l0.001-23.276    l-17.141-8.406l7.241-3.606l16.328,8.01V339.725z"/>
	</g>
</g>
<g id="Composite_Path_66_" opacity="0.0745">
	<g>
		<path fill="#FFFFFF" d="M1656.063,16.673l-42.195,21.353v53.381l42.865,21.352l42.864-21.352V38.025L1656.063,16.673z     M1641.041,92.931l-16.458-8.197V60.581l6.43-3.2l-0.001,23.349l17.207,8.57L1641.041,92.931z M1673.826,75.665l-17.296,8.647    l-17.296-8.647v-21.62l17.024-8.647l17.566,8.647L1673.826,75.665L1673.826,75.665z M1688.879,68.724l-6.43,3.254l0.001-23.276    l-17.141-8.406l7.241-3.606l16.328,8.009V68.724z"/>
	</g>
</g>
<g id="Composite_Path_67_" opacity="0.0745">
	<g>
		<path fill="#FFFFFF" d="M1656.063,197.672l-42.195,21.354v53.382l42.865,21.352l42.864-21.352v-53.382L1656.063,197.672z     M1641.041,273.932l-16.458-8.197v-24.152l6.43-3.2l-0.001,23.349l17.207,8.57L1641.041,273.932z M1673.826,256.665l-17.296,8.647    l-17.296-8.647v-21.62l17.024-8.646l17.566,8.646L1673.826,256.665L1673.826,256.665z M1688.879,249.725l-6.43,3.254l0.001-23.276    l-17.141-8.406l7.241-3.606l16.328,8.01V249.725z"/>
	</g>
</g>
<g id="Composite_Path_68_" opacity="0.0745">
	<g>
		<path fill="#FFFFFF" d="M2026.063,107.673l-42.195,21.353v53.381l42.865,21.352l42.865-21.352v-53.381L2026.063,107.673z     M2011.041,183.931l-16.458-8.197v-24.152l6.43-3.2v23.349l17.206,8.57L2011.041,183.931z M2043.826,166.665l-17.296,8.648    l-17.296-8.648v-21.62l17.024-8.647l17.566,8.647L2043.826,166.665L2043.826,166.665z M2058.879,159.725l-6.43,3.253l0.001-23.276    l-17.141-8.406l7.241-3.606l16.328,8.009V159.725z"/>
	</g>
</g>
<g id="Composite_Path_69_" opacity="0.0745">
	<g>
		<path fill="#FFFFFF" d="M2026.063,287.673l-42.195,21.353v53.382l42.865,21.352l42.865-21.352v-53.382L2026.063,287.673z     M2011.041,363.932l-16.458-8.197v-24.152l6.43-3.2v23.349l17.206,8.57L2011.041,363.932z M2043.826,346.665l-17.296,8.647    l-17.296-8.647v-21.62l17.024-8.646l17.566,8.646L2043.826,346.665L2043.826,346.665z M2058.879,339.725l-6.43,3.254l0.001-23.276    l-17.141-8.406l7.241-3.606l16.328,8.01V339.725z"/>
	</g>
</g>
<g id="Composite_Path_70_" opacity="0.0745">
	<g>
		<path fill="#FFFFFF" d="M1973.063,16.673l-42.195,21.353v53.381l42.865,21.352l42.864-21.352V38.025L1973.063,16.673z     M1958.041,92.931l-16.458-8.197V60.581l6.43-3.2V80.73l17.206,8.57L1958.041,92.931z M1990.826,75.665l-17.296,8.647    l-17.296-8.647v-21.62l17.024-8.647l17.566,8.647L1990.826,75.665L1990.826,75.665z M2005.879,68.724l-6.43,3.254l0.001-23.276    l-17.141-8.406l7.241-3.606l16.328,8.009V68.724z"/>
	</g>
</g>
<g id="Composite_Path_71_" opacity="0.0745">
	<g>
		<path fill="#FFFFFF" d="M1973.063,197.672l-42.195,21.354v53.382l42.865,21.352l42.864-21.352v-53.382L1973.063,197.672z     M1958.041,273.932l-16.458-8.197v-24.152l6.43-3.2v23.349l17.206,8.57L1958.041,273.932z M1990.826,256.665l-17.296,8.647    l-17.296-8.647v-21.62l17.024-8.646l17.566,8.646L1990.826,256.665L1990.826,256.665z M2005.879,249.725l-6.43,3.254l0.001-23.276    l-17.141-8.406l7.241-3.606l16.328,8.01V249.725z"/>
	</g>
</g>
<g id="Composite_Path_72_" opacity="0.0745">
	<g>
		<path fill="#FFFFFF" d="M1497.063,107.673l-42.195,21.353v53.381l42.865,21.352l42.864-21.352v-53.381L1497.063,107.673z     M1482.041,183.931l-16.459-8.197l0.001-24.152l6.43-3.2v23.349l17.206,8.57L1482.041,183.931z M1514.826,166.665l-17.296,8.648    l-17.296-8.648v-21.62l17.024-8.647l17.566,8.647L1514.826,166.665L1514.826,166.665z M1529.879,159.725l-6.43,3.253l0.001-23.276    l-17.141-8.406l7.241-3.606l16.328,8.009V159.725z"/>
	</g>
</g>
<g id="Composite_Path_73_" opacity="0.0745">
	<g>
		<path fill="#FFFFFF" d="M1497.063,287.673l-42.195,21.353v53.382l42.865,21.352l42.864-21.352v-53.382L1497.063,287.673z     M1482.041,363.932l-16.459-8.197l0.001-24.152l6.43-3.2v23.349l17.206,8.57L1482.041,363.932z M1514.826,346.665l-17.296,8.647    l-17.296-8.647v-21.62l17.024-8.646l17.566,8.646L1514.826,346.665L1514.826,346.665z M1529.879,339.725l-6.43,3.254l0.001-23.276    l-17.141-8.406l7.241-3.606l16.328,8.01V339.725z"/>
	</g>
</g>
<g id="Composite_Path_74_" opacity="0.0745">
	<g>
		<path fill="#FFFFFF" d="M1444.063,16.673l-42.195,21.353v53.381l42.865,21.352l42.864-21.352V38.025L1444.063,16.673z     M1429.041,92.931l-16.458-8.197V60.581l6.43-3.2V80.73l17.206,8.57L1429.041,92.931z M1461.826,75.665l-17.296,8.647    l-17.296-8.647v-21.62l17.024-8.647l17.566,8.647L1461.826,75.665L1461.826,75.665z M1476.879,68.724l-6.429,3.254V48.701    l-17.14-8.406l7.24-3.606l16.328,8.009V68.724z"/>
	</g>
</g>
<g id="Composite_Path_75_" opacity="0.0745">
	<g>
		<path fill="#FFFFFF" d="M1444.063,197.672l-42.195,21.354v53.382l42.865,21.352l42.864-21.352v-53.382L1444.063,197.672z     M1429.041,273.932l-16.458-8.197v-24.152l6.43-3.2v23.349l17.206,8.57L1429.041,273.932z M1461.826,256.665l-17.296,8.647    l-17.296-8.647v-21.62l17.024-8.646l17.566,8.646L1461.826,256.665L1461.826,256.665z M1476.879,249.725l-6.429,3.254v-23.276    l-17.14-8.406l7.24-3.606l16.328,8.01V249.725z"/>
	</g>
</g>
<g id="Composite_Path_76_" opacity="0.0745">
	<g>
		<path fill="#FFFFFF" d="M1921.063,107.673l-42.195,21.353v53.381l42.865,21.352l42.864-21.352v-53.381L1921.063,107.673z     M1906.041,183.931l-16.458-8.197v-24.152l6.43-3.2v23.349l17.206,8.57L1906.041,183.931z M1938.826,166.665l-17.296,8.648    l-17.296-8.648v-21.62l17.024-8.647l17.566,8.647L1938.826,166.665L1938.826,166.665z M1953.879,159.725l-6.43,3.253l0.001-23.276    l-17.141-8.406l7.241-3.606l16.328,8.009V159.725z"/>
	</g>
</g>
<g id="Composite_Path_77_" opacity="0.0745">
	<g>
		<path fill="#FFFFFF" d="M1921.063,287.673l-42.195,21.353v53.382l42.865,21.352l42.864-21.352v-53.382L1921.063,287.673z     M1906.041,363.932l-16.458-8.197v-24.152l6.43-3.2v23.349l17.206,8.57L1906.041,363.932z M1938.826,346.665l-17.296,8.647    l-17.296-8.647v-21.62l17.024-8.646l17.566,8.646L1938.826,346.665L1938.826,346.665z M1953.879,339.725l-6.43,3.254l0.001-23.276    l-17.141-8.406l7.241-3.606l16.328,8.01V339.725z"/>
	</g>
</g>
<g id="Composite_Path_78_" opacity="0.0745">
	<g>
		<path fill="#FFFFFF" d="M1868.063,16.673l-42.195,21.353v53.381l42.865,21.352l42.864-21.352V38.025L1868.063,16.673z     M1853.041,92.931l-16.458-8.197V60.581l6.43-3.2V80.73l17.206,8.57L1853.041,92.931z M1885.826,75.665l-17.296,8.647    l-17.296-8.647v-21.62l17.024-8.647l17.566,8.647L1885.826,75.665L1885.826,75.665z M1900.879,68.724l-6.43,3.254l0.001-23.276    l-17.141-8.406l7.241-3.606l16.328,8.009V68.724z"/>
	</g>
</g>
<g id="Composite_Path_79_" opacity="0.0745">
	<g>
		<path fill="#FFFFFF" d="M1868.063,197.672l-42.195,21.354v53.382l42.865,21.352l42.864-21.352v-53.382L1868.063,197.672z     M1853.041,273.932l-16.458-8.197v-24.152l6.43-3.2v23.349l17.206,8.57L1853.041,273.932z M1885.826,256.665l-17.296,8.647    l-17.296-8.647v-21.62l17.024-8.646l17.566,8.646L1885.826,256.665L1885.826,256.665z M1900.879,249.725l-6.43,3.254l0.001-23.276    l-17.141-8.406l7.241-3.606l16.328,8.01V249.725z"/>
	</g>
</g>
</svg>